<svg width="20" height="20" viewBox="0 0 20 20" fill="none" xmlns="http://www.w3.org/2000/svg">
  <path d="M14.2953 7.54314H12.8052C12.633 7.54314 12.4678 7.46963 12.3519 7.34012L11.7474 6.66102C11.656 6.55951 11.5295 6.5 11.3924 6.5C11.2554 6.5 11.1289 6.55951 11.0375 6.66102L10.5174 7.2456C10.3487 7.43463 10.1027 7.54665 9.84964 7.54665H1.69281C1.46086 8.20124 1.30974 8.89783 1.25 9.62243H8.94996C9.08702 9.62243 9.21354 9.56642 9.30843 9.46841L10.0254 8.72281C10.1132 8.62829 10.2397 8.57579 10.3663 8.57579H10.3944C10.5314 8.57579 10.6579 8.6353 10.7493 8.73681L11.3538 9.4159C11.4698 9.54542 11.6349 9.61893 11.8071 9.61893H18.0908C18.0311 8.89783 17.88 8.19773 17.648 7.53964L14.2953 7.54314Z" fill="white"/>
  <path d="M5.9093 13.9915C6.04636 13.9915 6.17288 13.9355 6.26777 13.8375L6.9847 13.0919C7.07607 12.9974 7.19907 12.9449 7.3291 12.9449H7.35722C7.49428 12.9449 7.62431 13.0044 7.71217 13.1024L8.31664 13.7815C8.43261 13.911 8.59779 13.9845 8.76999 13.9845H17.2888C17.6086 13.3264 17.8406 12.6228 17.9811 11.8842H9.80321C9.63101 11.8842 9.46583 11.8107 9.34986 11.6812L8.74539 11.0091C8.65402 10.9076 8.5275 10.8516 8.39044 10.8516C8.25338 10.8516 8.12335 10.9111 8.03549 11.0091L7.51536 11.5937C7.34667 11.7862 7.10067 11.8947 6.84412 11.8947H1.36523C1.50581 12.6333 1.73776 13.3369 2.05756 13.995L5.9093 13.9915Z" fill="white"/>
  <path d="M11.951 5.27119C12.0881 5.27119 12.2146 5.21518 12.3095 5.11717L13.0264 4.37157C13.1143 4.27705 13.2408 4.22455 13.3708 4.22455H13.399C13.536 4.22455 13.6625 4.28405 13.7539 4.38557L14.3584 5.06816C14.4744 5.19768 14.6395 5.27119 14.8117 5.27119H16.4319C14.889 3.22691 12.436 1.90723 9.67374 1.90723C6.91145 1.90723 4.45491 3.22691 2.91211 5.27119H11.951Z" fill="white"/>
  <path d="M8.70047 16.0738H6.48642C6.31422 16.0738 6.14904 16.0003 6.03307 15.8708L5.4286 15.1917C5.33723 15.0902 5.21071 15.0342 5.07365 15.0342C4.93659 15.0342 4.80656 15.0937 4.7187 15.1917L4.19857 15.7763C4.02988 15.9688 3.78388 16.0773 3.52733 16.0773H3.49219C5.03499 17.7226 7.23147 18.7552 9.67395 18.7552C12.1164 18.7552 14.3094 17.7226 15.8557 16.0773L8.70047 16.0738Z" fill="white"/>
</svg>
