<svg width="19" height="18" viewBox="0 0 19 18" fill="none" xmlns="http://www.w3.org/2000/svg">
<path d="M17.9028 12.2622L15.8279 4.07854C15.7733 3.86549 15.6577 3.67299 15.4954 3.52462C15.333 3.37626 15.1309 3.27847 14.9138 3.24322L12.3784 2.82697C12.0988 2.78202 11.8126 2.84263 11.5753 2.99702C11.338 3.1514 11.1666 3.38853 11.0944 3.66229L11.0797 3.72205C11.0701 3.76002 11.0686 3.79957 11.0752 3.83817C11.0818 3.87676 11.0964 3.91355 11.118 3.94618C11.1397 3.97881 11.1679 4.00656 11.2009 4.02766C11.2339 4.04876 11.2709 4.06273 11.3096 4.06869C11.8914 4.15408 12.4654 4.28623 13.0259 4.46385C13.1661 4.50613 13.2849 4.60014 13.3583 4.72679C13.4316 4.85345 13.4541 5.00327 13.4211 5.14588C13.4021 5.22019 13.3681 5.28984 13.3213 5.35055C13.2744 5.41125 13.2156 5.46172 13.1485 5.49886C13.0814 5.536 13.0074 5.55903 12.931 5.56652C12.8547 5.57402 12.7777 5.56582 12.7046 5.54244C10.6246 4.90456 8.4016 4.90211 6.32023 5.53541C6.17937 5.58277 6.02569 5.57406 5.89109 5.51108C5.75649 5.4481 5.65132 5.3357 5.59742 5.19721C5.5718 5.12615 5.56076 5.05065 5.56495 4.97523C5.56914 4.89981 5.58848 4.826 5.62182 4.75822C5.65515 4.69043 5.7018 4.63005 5.75897 4.58069C5.81615 4.53132 5.88268 4.49398 5.9546 4.47088C6.52217 4.2901 7.10344 4.1556 7.69273 4.06869C7.73143 4.06273 7.76846 4.04876 7.80144 4.02766C7.83443 4.00656 7.86265 3.97881 7.88429 3.94618C7.90594 3.91355 7.92053 3.87676 7.92713 3.83817C7.93374 3.79957 7.93221 3.76002 7.92265 3.72205L7.90789 3.66229C7.83571 3.3883 7.66407 3.15102 7.42644 2.99672C7.18881 2.84241 6.90223 2.78215 6.62257 2.82768L4.0857 3.24393C3.86869 3.27912 3.66666 3.37681 3.50431 3.52504C3.34197 3.67327 3.22636 3.86562 3.17164 4.07854L1.09671 12.2622C1.03166 12.5194 1.05997 12.7914 1.17662 13.0297C1.29327 13.2681 1.49069 13.4573 1.73374 13.5637L6.44468 15.6527C6.58633 15.7157 6.73937 15.749 6.89438 15.7507C7.04939 15.7523 7.2031 15.7223 7.34607 15.6623C7.48904 15.6024 7.61824 15.5139 7.72574 15.4022C7.83323 15.2905 7.91676 15.158 7.97117 15.0128L8.21656 14.3484C8.23118 14.3086 8.23661 14.266 8.23246 14.2238C8.2283 14.1816 8.21465 14.1409 8.19254 14.1047C8.17042 14.0685 8.14042 14.0378 8.10476 14.0149C8.06911 13.9919 8.02872 13.9773 7.98664 13.9722C7.30358 13.8895 6.62967 13.7436 5.97359 13.5363C5.83403 13.4939 5.71573 13.4001 5.64253 13.2739C5.56934 13.1478 5.54668 12.9986 5.57914 12.8563C5.59794 12.7818 5.63183 12.712 5.67869 12.651C5.72555 12.5901 5.7844 12.5394 5.8516 12.5022C5.91881 12.4649 5.99294 12.4417 6.06943 12.4342C6.14592 12.4267 6.22314 12.4349 6.29632 12.4584C8.38409 13.0977 10.6154 13.0977 12.7032 12.4584C12.7763 12.435 12.8534 12.4268 12.9298 12.4344C13.0061 12.4419 13.0802 12.465 13.1473 12.5022C13.2144 12.5394 13.2732 12.59 13.32 12.6508C13.3669 12.7115 13.4008 12.7813 13.4197 12.8556C13.4525 12.998 13.43 13.1474 13.3568 13.2738C13.2836 13.4002 13.165 13.494 13.0252 13.5363C12.3694 13.7436 11.6957 13.8896 11.0129 13.9722C10.9708 13.9773 10.9304 13.9919 10.8948 14.0149C10.8591 14.0378 10.8291 14.0685 10.807 14.1047C10.7849 14.1409 10.7712 14.1816 10.7671 14.2238C10.7629 14.266 10.7683 14.3086 10.783 14.3484L11.0284 15.0128C11.0829 15.1579 11.1664 15.2904 11.2739 15.402C11.3814 15.5136 11.5106 15.6021 11.6536 15.662C11.7965 15.7219 11.9502 15.752 12.1052 15.7504C12.2602 15.7488 12.4132 15.7155 12.5548 15.6527L17.2658 13.5637C17.5088 13.4573 17.7063 13.2681 17.8229 13.0297C17.9396 12.7914 17.9679 12.5194 17.9028 12.2622ZM6.96851 10.6879C6.80163 10.6879 6.6385 10.6384 6.49975 10.5457C6.36099 10.453 6.25285 10.3212 6.18899 10.1671C6.12513 10.0129 6.10842 9.84323 6.14097 9.67955C6.17353 9.51588 6.25389 9.36554 6.37189 9.24754C6.48989 9.12954 6.64023 9.04918 6.8039 9.01662C6.96757 8.98407 7.13722 9.00078 7.2914 9.06464C7.44558 9.1285 7.57735 9.23665 7.67006 9.3754C7.76278 9.51415 7.81226 9.67728 7.81226 9.84416C7.81226 10.0679 7.72337 10.2825 7.56513 10.4408C7.4069 10.599 7.19229 10.6879 6.96851 10.6879ZM12.031 10.6879C11.8641 10.6879 11.701 10.6384 11.5622 10.5457C11.4235 10.453 11.3153 10.3212 11.2515 10.1671C11.1876 10.0129 11.1709 9.84323 11.2035 9.67955C11.236 9.51588 11.3164 9.36554 11.4344 9.24754C11.5524 9.12954 11.7027 9.04918 11.8664 9.01662C12.0301 8.98407 12.1997 9.00078 12.3539 9.06464C12.5081 9.1285 12.6399 9.23665 12.7326 9.3754C12.8253 9.51415 12.8748 9.67728 12.8748 9.84416C12.8748 10.0679 12.7859 10.2825 12.6276 10.4408C12.4694 10.599 12.2548 10.6879 12.031 10.6879Z" fill="black"/>
</svg>
