<svg width="32" height="33" viewBox="0 0 32 33" fill="none" xmlns="http://www.w3.org/2000/svg">
<g clip-path="url(#clip0_2_20128)">
<path d="M32 16.5C32 7.66344 24.8366 0.5 16 0.5C7.16344 0.5 0 7.66344 0 16.5C0 25.3366 7.16344 32.5 16 32.5C24.8366 32.5 32 25.3366 32 16.5Z" fill="#7289DA"/>
<path d="M24.0232 11.0195C22.5553 9.84516 20.7938 9.25802 18.9345 9.16016L18.6409 9.45376C20.3045 9.84516 21.7724 10.628 23.1424 11.7045C21.4788 10.8238 19.6195 10.2366 17.6623 10.0409C17.0752 9.94302 16.5858 9.94302 15.9987 9.94302C15.4116 9.94302 14.9222 9.94302 14.3351 10.0409C12.3779 10.2366 10.5186 10.8238 8.85496 11.7045C10.225 10.628 11.6929 9.84516 13.3565 9.45376L13.0629 9.16016C11.2036 9.25802 9.4421 9.84516 7.97423 11.0195C6.31062 14.151 5.42989 17.674 5.33203 21.2947C6.7999 22.8605 8.85496 23.8391 11.0079 23.8391C11.0079 23.8391 11.6929 23.0562 12.1822 22.3712C10.91 22.0776 9.7357 21.3926 8.95283 20.3162C9.63783 20.7076 10.3228 21.099 11.0079 21.3926C11.8886 21.784 12.7694 21.9798 13.6501 22.1755C14.433 22.2733 15.2158 22.3712 15.9987 22.3712C16.7816 22.3712 17.5644 22.2733 18.3473 22.1755C19.228 21.9798 20.1088 21.784 20.9895 21.3926C21.6746 21.099 22.3596 20.7076 23.0446 20.3162C22.2617 21.3926 21.0874 22.0776 19.8152 22.3712C20.3045 23.0562 20.9895 23.8391 20.9895 23.8391C23.1424 23.8391 25.1975 22.8605 26.6654 21.2947C26.5675 17.674 25.6868 14.151 24.0232 11.0195ZM12.7694 19.5332C11.7908 19.5332 10.91 18.6525 10.91 17.5761C10.91 16.4996 11.7908 15.6189 12.7694 15.6189C13.748 15.6189 14.6287 16.4996 14.6287 17.5761C14.6287 18.6525 13.748 19.5332 12.7694 19.5332ZM19.228 19.5332C18.2494 19.5332 17.3687 18.6525 17.3687 17.5761C17.3687 16.4996 18.2494 15.6189 19.228 15.6189C20.2066 15.6189 21.0874 16.4996 21.0874 17.5761C21.0874 18.6525 20.2066 19.5332 19.228 19.5332Z" fill="white"/>
</g>
<defs>
<clipPath id="clip0_2_20128">
<rect width="32" height="32" fill="white" transform="translate(0 0.5)"/>
</clipPath>
</defs>
</svg>
