<svg width="18" height="18" viewBox="0 0 18 18" fill="none" xmlns="http://www.w3.org/2000/svg">
<path d="M16.235 5.17478C16.015 5.06695 15.7656 5.03462 15.5254 5.08279C15.2851 5.13096 15.0675 5.25695 14.9061 5.44127L12.5387 7.99291L10.0215 2.34752C10.0213 2.34518 10.0213 2.34283 10.0215 2.34049C9.93145 2.14526 9.78739 1.97991 9.60633 1.86402C9.42527 1.74812 9.2148 1.68652 8.99982 1.68652C8.78485 1.68652 8.57437 1.74812 8.39331 1.86402C8.21225 1.97991 8.06819 2.14526 7.97818 2.34049C7.9783 2.34283 7.9783 2.34518 7.97818 2.34752L5.461 7.99291L3.09357 5.44127C2.93113 5.25692 2.71279 5.13082 2.47193 5.08224C2.23107 5.03366 1.98093 5.06527 1.75973 5.17225C1.53852 5.27922 1.35843 5.45567 1.24695 5.67464C1.13548 5.89361 1.09876 6.14306 1.1424 6.38486C1.1424 6.3926 1.1424 6.39963 1.14732 6.40736L2.74201 13.7107C2.7911 13.9679 2.92835 14.1999 3.13011 14.3667C3.33187 14.5336 3.58551 14.6248 3.84732 14.6248H14.153C14.4147 14.6247 14.6682 14.5334 14.8698 14.3665C15.0714 14.1997 15.2086 13.9678 15.2576 13.7107L16.8523 6.40736C16.8523 6.39963 16.8523 6.3926 16.8572 6.38486C16.9017 6.14276 16.8648 5.89274 16.7522 5.67383C16.6397 5.45492 16.4578 5.27944 16.235 5.17478ZM14.1572 13.4773L14.153 13.4998H3.84662L3.8424 13.4773L2.24982 6.18728L2.25967 6.19853L5.21279 9.37947C5.27603 9.4478 5.35524 9.49937 5.44331 9.52955C5.53139 9.55972 5.62557 9.56757 5.71743 9.55237C5.80928 9.53718 5.89593 9.49943 5.96959 9.4425C6.04326 9.38557 6.10165 9.31124 6.13951 9.22619L8.99982 2.81228L11.8608 9.2283C11.8987 9.31335 11.9571 9.38768 12.0308 9.44461C12.1044 9.50154 12.1911 9.53929 12.2829 9.55448C12.3748 9.56968 12.469 9.56183 12.557 9.53166C12.6451 9.50148 12.7243 9.44991 12.7876 9.38158L15.7407 6.20064L15.7498 6.18728L14.1572 13.4773Z" fill="#BDBDBD"/>
</svg>
