<svg width="19" height="18" viewBox="0 0 19 18" fill="none" xmlns="http://www.w3.org/2000/svg">
<rect x="5.90039" y="5.3999" width="8.1" height="8.1" fill="white"/>
<path d="M16.3808 7.22953C16.1157 6.9525 15.8415 6.66703 15.7381 6.41602C15.6425 6.18609 15.6369 5.805 15.6312 5.43586C15.6207 4.74961 15.6095 3.97195 15.0687 3.43125C14.528 2.89055 13.7504 2.8793 13.0641 2.86875C12.695 2.86312 12.3139 2.8575 12.084 2.76187C11.8337 2.65852 11.5475 2.3843 11.2705 2.11922C10.7853 1.65305 10.2341 1.125 9.5 1.125C8.76594 1.125 8.21539 1.65305 7.72953 2.11922C7.4525 2.3843 7.16703 2.65852 6.91602 2.76187C6.6875 2.8575 6.305 2.86312 5.93586 2.86875C5.24961 2.8793 4.47195 2.89055 3.93125 3.43125C3.39055 3.97195 3.38281 4.74961 3.36875 5.43586C3.36312 5.805 3.3575 6.18609 3.26187 6.41602C3.15852 6.66633 2.8843 6.9525 2.61922 7.22953C2.15305 7.71469 1.625 8.26594 1.625 9C1.625 9.73406 2.15305 10.2846 2.61922 10.7705C2.8843 11.0475 3.15852 11.333 3.26187 11.584C3.3575 11.8139 3.36312 12.195 3.36875 12.5641C3.3793 13.2504 3.39055 14.028 3.93125 14.5687C4.47195 15.1095 5.24961 15.1207 5.93586 15.1312C6.305 15.1369 6.68609 15.1425 6.91602 15.2381C7.16633 15.3415 7.4525 15.6157 7.72953 15.8808C8.21469 16.347 8.76594 16.875 9.5 16.875C10.2341 16.875 10.7846 16.347 11.2705 15.8808C11.5475 15.6157 11.833 15.3415 12.084 15.2381C12.3139 15.1425 12.695 15.1369 13.0641 15.1312C13.7504 15.1207 14.528 15.1095 15.0687 14.5687C15.6095 14.028 15.6207 13.2504 15.6312 12.5641C15.6369 12.195 15.6425 11.8139 15.7381 11.584C15.8415 11.3337 16.1157 11.0475 16.3808 10.7705C16.847 10.2853 17.375 9.73406 17.375 9C17.375 8.26594 16.847 7.71539 16.3808 7.22953ZM12.7105 7.71047L8.77297 11.648C8.72073 11.7003 8.65869 11.7418 8.5904 11.7701C8.52212 11.7984 8.44892 11.8129 8.375 11.8129C8.30108 11.8129 8.22788 11.7984 8.1596 11.7701C8.09131 11.7418 8.02927 11.7003 7.97703 11.648L6.28953 9.96047C6.18398 9.85492 6.12469 9.71177 6.12469 9.5625C6.12469 9.41323 6.18398 9.27008 6.28953 9.16453C6.39508 9.05898 6.53823 8.99969 6.6875 8.99969C6.83677 8.99969 6.97992 9.05898 7.08547 9.16453L8.375 10.4548L11.9145 6.91453C11.9668 6.86227 12.0288 6.82081 12.0971 6.79253C12.1654 6.76424 12.2386 6.74969 12.3125 6.74969C12.3864 6.74969 12.4596 6.76424 12.5279 6.79253C12.5962 6.82081 12.6582 6.86227 12.7105 6.91453C12.7627 6.96679 12.8042 7.02884 12.8325 7.09712C12.8608 7.1654 12.8753 7.23859 12.8753 7.3125C12.8753 7.38641 12.8608 7.4596 12.8325 7.52788C12.8042 7.59616 12.7627 7.65821 12.7105 7.71047Z" fill="#2282E3"/>
</svg>
