<svg width="19" height="18" viewBox="0 0 19 18" fill="none" xmlns="http://www.w3.org/2000/svg">
<path d="M15.5993 14.8859L11.1977 7.96852L15.5409 3.19078C15.6391 3.08006 15.6898 2.93508 15.6818 2.78727C15.6739 2.63947 15.608 2.50076 15.4984 2.40121C15.3889 2.30166 15.2445 2.2493 15.0966 2.25548C14.9487 2.26166 14.8093 2.32588 14.7084 2.43422L10.5712 6.98484L7.72426 2.51086C7.6735 2.43095 7.60338 2.36515 7.52042 2.31955C7.43745 2.27395 7.34432 2.25003 7.24965 2.25H3.87465C3.7738 2.24995 3.67478 2.27702 3.58798 2.32837C3.50118 2.37972 3.42978 2.45347 3.38125 2.54188C3.33273 2.6303 3.30888 2.73014 3.31218 2.83094C3.31549 2.93174 3.34583 3.0298 3.40004 3.11484L7.80161 10.0315L3.4584 14.8127C3.40768 14.8672 3.36828 14.9312 3.34248 15.001C3.31669 15.0709 3.305 15.1451 3.30811 15.2195C3.31121 15.2939 3.32905 15.3669 3.36059 15.4343C3.39212 15.5017 3.43672 15.5622 3.49181 15.6123C3.5469 15.6623 3.61137 15.701 3.6815 15.7259C3.75162 15.7509 3.82601 15.7617 3.90033 15.7577C3.97466 15.7537 4.04746 15.735 4.1145 15.7026C4.18155 15.6703 4.24151 15.625 4.2909 15.5693L8.42809 11.0187L11.275 15.4927C11.3262 15.5719 11.3965 15.637 11.4795 15.682C11.5624 15.727 11.6553 15.7503 11.7497 15.75H15.1247C15.2254 15.75 15.3243 15.7229 15.411 15.6716C15.4977 15.6203 15.569 15.5466 15.6175 15.4583C15.666 15.37 15.6899 15.2703 15.6867 15.1696C15.6835 15.0689 15.6533 14.9709 15.5993 14.8859ZM12.0583 14.625L4.89911 3.375H6.93817L14.1002 14.625H12.0583Z" fill="black"/>
</svg>
