<svg width="32" height="33" viewBox="0 0 32 33" fill="none" xmlns="http://www.w3.org/2000/svg">
<path d="M32 16.5C32 16.9322 31.9834 17.3561 31.9418 17.78C31.6343 21.6699 29.9138 25.1857 27.3039 27.8039C24.4031 30.7047 20.4052 32.5 16 32.5C14.8114 32.5 13.6561 32.367 12.5506 32.1177C11.7694 31.9514 11.0213 31.727 10.2899 31.4444C4.28883 29.1338 0 23.2906 0 16.5C0 12.1031 1.80364 8.09688 4.6961 5.1961C7.59688 2.29532 11.5948 0.5 16 0.5C20.4052 0.5 24.4031 2.29532 27.3039 5.1961C29.1158 7.01636 30.5039 9.26883 31.2852 11.779C31.626 12.8844 31.8504 14.0314 31.9418 15.22C31.9501 15.3031 31.9584 15.3945 31.9584 15.4777C31.9917 15.8184 32 16.1509 32 16.5Z" fill="url(#paint0_linear_2_20112)"/>
<path d="M31.9995 16.4996C31.9995 16.9318 31.9828 17.3557 31.9413 17.7796C31.6337 21.6695 29.9132 25.1853 27.3033 27.8035C24.4026 30.7043 20.4047 32.4996 15.9995 32.4996C14.8109 32.4996 13.6556 32.3666 12.5501 32.1172L6.74023 26.0331L13.88 17.7463L6.84829 7.51465H12.9408L18.1605 12.7676L22.6737 7.51465H25.2005L31.6919 14.4632C31.7917 14.7957 31.8831 15.1365 31.9579 15.4772C31.9911 15.818 31.9995 16.1505 31.9995 16.4996Z" fill="#161616"/>
<path d="M25.6654 26.0326H19.573L15.0016 19.3749L9.2748 26.0326H6.74805L13.8795 17.7458L6.8561 7.52246H12.9486L17.2706 13.8144L22.6816 7.52246H25.2083L18.3927 15.4435L25.6738 26.0326H25.6654ZM19.9719 25.2762H24.2358L17.4369 15.3853L23.5626 8.2622H23.0223L17.1958 15.0362L12.5413 8.2622H8.2774L14.827 17.7874L8.38545 25.2762H8.92571L15.068 18.1365L19.9719 25.2762ZM23.5709 24.9271H20.2961L8.92571 8.66947H12.2005L23.5709 24.9271ZM20.6867 24.1791H22.1247L11.8099 9.42584H10.3719L20.6867 24.1791Z" fill="white"/>
<defs>
<linearGradient id="paint0_linear_2_20112" x1="2.15273" y1="8.50416" x2="29.8473" y2="24.4958" gradientUnits="userSpaceOnUse">
<stop stop-color="#646464"/>
<stop offset="0.72" stop-color="#1D1D1D"/>
<stop offset="1"/>
</linearGradient>
</defs>
</svg>
